<svg id="Group_47" data-name="Group 47" xmlns="http://www.w3.org/2000/svg" width="3514.08" height="2806.955" viewBox="0 0 3514.08 2806.955">
  <path id="Path_71" data-name="Path 71" d="M-22266.75,15612.781l360.063-272.25,124.75,371.469Z" transform="translate(22266.75 -14622.877)" fill="#659a2d"/>
  <path id="Path_72" data-name="Path 72" d="M-22209.562,15340.531l243.188,743,483.188-553.281Z" transform="translate(22612.467 -14622.877)" fill="#7cb342"/>
  <path id="Path_73" data-name="Path 73" d="M-20986.5,15248.813l-1181.625,1396.375,1416-221.156Z" transform="translate(22829.443 -15133.313)" fill="#7cb342"/>
  <path id="Path_76" data-name="Path 76" d="M0,212.222,106.721,1277.4,1286.868,0Z" transform="translate(2250.855 0) rotate(11)" fill="#659a2d"/>
  <path id="Path_74" data-name="Path 74" d="M-22168.125,15649.125v137.438l1165.25,538.656,241.813-898.094Z" transform="translate(22829.443 -14094.211)" fill="#659a2d"/>
  <path id="Path_75" data-name="Path 75" d="M-21989.25,15308.188l227.5,1166.688,1216-1236.25Z" transform="translate(23872.287 -15192.662)" fill="#7cb342"/>
  <path id="Path_77" data-name="Path 77" d="M210.487,0,0,932.22l588.258,533.755Z" transform="matrix(0.999, 0.035, -0.035, 0.999, 1904.66, 1321.342)" fill="#7cb342"/>
</svg>
