<?xml version="1.0"?>
<svg xmlns="http://www.w3.org/2000/svg" height="512px" viewBox="0 0 420 420" width="512px"><g><path d="m10 147.3125c5.523438 0 10-4.476562 10-10v-87.3125c.019531-16.5625 13.4375-29.980469 30-30h87.3125c5.523438 0 10-4.476562 10-10s-4.476562-10-10-10h-87.3125c-27.601562.03125-49.96875 22.398438-50 50v87.3125c0 5.523438 4.476562 10 10 10zm0 0" data-original="#000000" class="active-path" data-old_color="#000000" fill="#0186F4"/><path d="m370 0h-87.3125c-5.523438 0-10 4.476562-10 10s4.476562 10 10 10h87.3125c16.5625.019531 29.980469 13.4375 30 30v87.3125c0 5.523438 4.476562 10 10 10s10-4.476562 10-10v-87.3125c-.03125-27.601562-22.398438-49.96875-50-50zm0 0" data-original="#000000" class="active-path" data-old_color="#000000" fill="#0186F4"/><path d="m410 272.6875c-5.523438 0-10 4.476562-10 10v87.3125c-.019531 16.5625-13.4375 29.980469-30 30h-87.3125c-5.523438 0-10 4.476562-10 10s4.476562 10 10 10h87.3125c27.601562-.03125 49.96875-22.398438 50-50v-87.3125c0-5.523438-4.476562-10-10-10zm0 0" data-original="#000000" class="active-path" data-old_color="#000000" fill="#0186F4"/><path d="m137.3125 400h-87.3125c-16.5625-.019531-29.980469-13.4375-30-30v-87.3125c0-5.523438-4.476562-10-10-10s-10 4.476562-10 10v87.3125c.03125 27.601562 22.398438 49.96875 50 50h87.3125c5.523438 0 10-4.476562 10-10s-4.476562-10-10-10zm0 0" data-original="#000000" class="active-path" data-old_color="#000000" fill="#0186F4"/><path d="m288.65625 210c0 43.441406-35.214844 78.65625-78.65625 78.65625s-78.65625-35.214844-78.65625-78.65625 35.214844-78.65625 78.65625-78.65625 78.65625 35.214844 78.65625 78.65625zm0 0" data-original="#000000" class="active-path" data-old_color="#000000" fill="#0186F4"/></g> </svg>
