<svg xmlns="http://www.w3.org/2000/svg" width="367.135" height="193.806" viewBox="0 0 367.135 193.806">
  <g id="Group_58" data-name="Group 58" transform="translate(-326.228 -1541.53)">
    <g id="Group_33" data-name="Group 33" transform="translate(326.228 1541.53)">
      <path id="Path_78" data-name="Path 78" d="M-22190.25,16010.258v-55.744l38.7-26.7,35.631,26.7v55.744Z" transform="translate(22292.289 -15816.459)" fill="#5e8d2c"/>
      <path id="Path_79" data-name="Path 79" d="M-22166.75,15997.592h63.047v-64.717l-63.047,38.5Z" transform="translate(22353.998 -15803.786)" fill="#7cb342"/>
      <path id="Path_80" data-name="Path 80" d="M-22182.187,16000.483l9.469-7.86,36.537,27.8v-125.267l-46.006,26.18Z" transform="translate(22312.572 -15895.155)" fill="#5e8d2c"/>
      <path id="Path_81" data-name="Path 81" d="M-22166.75,15910.344v105.4l44.84-27.45v-49.2Z" transform="translate(22353.998 -15859.889)" fill="#7cb342"/>
      <path id="Path_82" data-name="Path 82" d="M-22151.875,15924.656v26.449l11.924-6.685h41.984l70.271,74.117-.627-42.7-51.889-51.184Z" transform="translate(22394.83 -15825.622)" fill="#7cb342"/>
      <path id="Path_83" data-name="Path 83" d="M-22146.812,15932.875h29.977l62.8,63.985h-92.775Z" transform="translate(22408.016 -15803.148)" fill="#5e8d2c"/>
      <path id="Path_84" data-name="Path 84" d="M-22102.92,15921.625v15.457l-28.008,20.278v60.888H-22222v-41l55.613-55.623Z" transform="translate(22222 -15824.502)" fill="#7cb342"/>
    </g>
  </g>
</svg>
