<svg id="Instagram" xmlns="http://www.w3.org/2000/svg" width="34.314" height="34.315" viewBox="0 0 34.314 34.315">
  <g id="Group_52" data-name="Group 52" transform="translate(0 0)">
    <path id="Path_106" data-name="Path 106" d="M28.359,11.2c-4.66,0-5.244.02-7.075.1a12.589,12.589,0,0,0-4.164.8,8.777,8.777,0,0,0-5.02,5.017,12.533,12.533,0,0,0-.8,4.164c-.082,1.83-.1,2.415-.1,7.075s.021,5.243.1,7.073a12.61,12.61,0,0,0,.8,4.164,8.78,8.78,0,0,0,5.017,5.02,12.6,12.6,0,0,0,4.165.8c1.83.083,2.415.1,7.074.1s5.243-.02,7.073-.1a12.611,12.611,0,0,0,4.166-.8,8.791,8.791,0,0,0,5.017-5.019,12.716,12.716,0,0,0,.8-4.164c.082-1.83.1-2.413.1-7.073s-.021-5.245-.1-7.075a12.71,12.71,0,0,0-.8-4.164A8.779,8.779,0,0,0,39.6,12.1a12.629,12.629,0,0,0-4.168-.8c-1.83-.083-2.413-.1-7.074-.1Zm-.572,3.092h.572c4.581,0,5.124.016,6.933.1a9.5,9.5,0,0,1,3.186.591,5.686,5.686,0,0,1,3.256,3.256,9.481,9.481,0,0,1,.591,3.185c.082,1.809.1,2.352.1,6.931s-.018,5.122-.1,6.931a9.491,9.491,0,0,1-.591,3.185,5.69,5.69,0,0,1-3.256,3.254,9.463,9.463,0,0,1-3.186.591c-1.809.082-2.352.1-6.933.1s-5.124-.018-6.933-.1a9.517,9.517,0,0,1-3.186-.592,5.684,5.684,0,0,1-3.257-3.255,9.48,9.48,0,0,1-.591-3.185c-.082-1.809-.1-2.352-.1-6.934s.016-5.122.1-6.931a9.5,9.5,0,0,1,.591-3.186,5.685,5.685,0,0,1,3.257-3.257,9.48,9.48,0,0,1,3.186-.592c1.583-.071,2.2-.093,5.394-.1v0ZM35.458,19.2a2.059,2.059,0,0,1,2.059-2.058h0A2.059,2.059,0,1,1,35.458,19.2Zm-7.1.347a8.81,8.81,0,1,0,8.81,8.811A8.811,8.811,0,0,0,28.358,19.546Zm5.72,8.811a5.719,5.719,0,1,0-5.719,5.719A5.719,5.719,0,0,0,34.078,28.358Z" transform="translate(-11.2 -11.2)" fill="#0086f4" fill-rule="evenodd"/>
  </g>
</svg>
