<svg id="Mail_ru" xmlns="http://www.w3.org/2000/svg" width="37.531" height="37.425" viewBox="0 0 37.531 37.425">
  <path id="Path_112" data-name="Path 112" d="M10,28.713a18.766,18.766,0,0,1,37.531,0,16.517,16.517,0,0,1-.4,3.833l0,.02s-.136.551-.211.79a7.05,7.05,0,0,1-2.428,3.563A6.348,6.348,0,0,1,40.683,38.2c-.169,0-.338-.007-.5-.02a6.1,6.1,0,0,1-4.688-2.795,9.454,9.454,0,1,1,2.767-6.671v3.051a2.4,2.4,0,0,0,2.229,2.59,2.788,2.788,0,0,0,2.846-2.444,14.921,14.921,0,1,0-6.514,9.32l.043-.028,2.528,2.931-.054.037A18.772,18.772,0,0,1,10,28.713Zm18.765,5.629a5.629,5.629,0,1,0-5.645-5.629A5.643,5.643,0,0,0,28.765,34.342Z" transform="translate(-10 -10)" fill="#0086f4" fill-rule="evenodd"/>
</svg>
