<svg id="Medium" xmlns="http://www.w3.org/2000/svg" width="42.893" height="34.851" viewBox="0 0 42.893 34.851">
  <path id="Path_108" data-name="Path 108" d="M13.086,18.109a1.722,1.722,0,0,0-.541-1.434l-4-4.938V11H20.976l9.612,21.574L39.038,11H50.893v.738L47.469,15.1a1.036,1.036,0,0,0-.381.983V40.77a1.036,1.036,0,0,0,.381.983l3.344,3.36v.738H33.992v-.738l3.464-3.442c.34-.348.34-.451.34-.983V20.732L28.165,45.769h-1.3L15.649,20.732v16.78a2.35,2.35,0,0,0,.621,1.926l4.506,5.593v.738H8v-.738l4.506-5.593a2.267,2.267,0,0,0,.581-1.926Z" transform="translate(-8 -11)" fill="#0086f4"/>
</svg>
