<svg id="Twitter" xmlns="http://www.w3.org/2000/svg" width="31.142" height="25.736" viewBox="0 0 31.142 25.736">
  <path id="Path_110" data-name="Path 110" d="M27.121,21.246l.068,1.113-1.125-.136a18.3,18.3,0,0,1-10.711-5.271l-1.485-1.477-.383,1.09a6.556,6.556,0,0,0,1.4,6.724c.9.954.7,1.091-.855.523a2.656,2.656,0,0,0-1.058-.25,8.142,8.142,0,0,0,.81,3.044,7.267,7.267,0,0,0,3.083,2.908l1.1.522-1.305.023c-1.26,0-1.305.023-1.17.5A6.8,6.8,0,0,0,19.7,34.286l1.4.477-1.215.727a12.667,12.667,0,0,1-6.031,1.681A6.662,6.662,0,0,0,12,37.353c0,.227,2.745,1.5,4.343,2A19.007,19.007,0,0,0,31.1,37.671,19.755,19.755,0,0,0,38.6,28.857a23.432,23.432,0,0,0,1.53-6.815c0-1.045.067-1.181,1.328-2.431a14.862,14.862,0,0,0,1.575-1.749c.225-.432.2-.432-.945-.045-1.913.681-2.183.591-1.238-.432a6.609,6.609,0,0,0,1.53-2.431c0-.068-.338.045-.72.25a12.551,12.551,0,0,1-1.98.772l-1.215.386-1.1-.75a9.157,9.157,0,0,0-1.913-1,7.686,7.686,0,0,0-3.938.091A6.5,6.5,0,0,0,27.121,21.246Z" transform="translate(-12 -14.4)" fill="#0086f4"/>
</svg>
